<mxfile host="app.diagrams.net" modified="2022-12-01T22:47:59.959Z" agent="5.0 (Windows NT 10.0; Win64; x64) AppleWebKit/537.36 (KHTML, like Gecko) Chrome/107.0.0.0 Safari/537.36 Edg/107.0.1418.62" etag="uwEj6EoNMVU33wZSGmdz" version="20.5.3" type="github">
  <diagram name="Page-1" id="10a91c8b-09ff-31b1-d368-03940ed4cc9e">
    <mxGraphModel dx="831" dy="703" grid="1" gridSize="10" guides="1" tooltips="1" connect="1" arrows="1" fold="1" page="1" pageScale="1" pageWidth="1100" pageHeight="850" background="none" math="0" shadow="0">
      <root>
        <mxCell id="0" />
        <mxCell id="1" parent="0" />
        <mxCell id="cbmwsGL8jix4jwU1fs1p-1" value="&lt;font style=&quot;font-size: 21px;&quot;&gt;Froukjes-grote-Marktplaats-aankoop-beslisboom&lt;/font&gt;" style="text;html=1;align=center;verticalAlign=middle;resizable=0;points=[];autosize=1;strokeColor=none;fillColor=none;" parent="1" vertex="1">
          <mxGeometry x="305" y="80" width="480" height="40" as="geometry" />
        </mxCell>
        <mxCell id="cbmwsGL8jix4jwU1fs1p-4" style="edgeStyle=orthogonalEdgeStyle;rounded=0;orthogonalLoop=1;jettySize=auto;html=1;exitX=0.5;exitY=1;exitDx=0;exitDy=0;entryX=0.5;entryY=0;entryDx=0;entryDy=0;fontSize=12;" parent="1" source="cbmwsGL8jix4jwU1fs1p-2" target="cbmwsGL8jix4jwU1fs1p-3" edge="1">
          <mxGeometry relative="1" as="geometry" />
        </mxCell>
        <mxCell id="cbmwsGL8jix4jwU1fs1p-5" value="Ja" style="edgeLabel;html=1;align=center;verticalAlign=middle;resizable=0;points=[];fontSize=12;" parent="cbmwsGL8jix4jwU1fs1p-4" vertex="1" connectable="0">
          <mxGeometry x="-0.1789" relative="1" as="geometry">
            <mxPoint x="40" y="-15" as="offset" />
          </mxGeometry>
        </mxCell>
        <mxCell id="cbmwsGL8jix4jwU1fs1p-7" style="edgeStyle=orthogonalEdgeStyle;rounded=0;orthogonalLoop=1;jettySize=auto;html=1;entryX=0.5;entryY=0;entryDx=0;entryDy=0;fontSize=12;" parent="1" source="cbmwsGL8jix4jwU1fs1p-2" target="cbmwsGL8jix4jwU1fs1p-6" edge="1">
          <mxGeometry relative="1" as="geometry" />
        </mxCell>
        <mxCell id="cbmwsGL8jix4jwU1fs1p-43" value="Nee" style="edgeLabel;html=1;align=center;verticalAlign=middle;resizable=0;points=[];fontSize=10;" parent="cbmwsGL8jix4jwU1fs1p-7" vertex="1" connectable="0">
          <mxGeometry x="-0.8895" y="-1" relative="1" as="geometry">
            <mxPoint x="-12" y="-1" as="offset" />
          </mxGeometry>
        </mxCell>
        <mxCell id="cbmwsGL8jix4jwU1fs1p-2" value="&lt;font style=&quot;font-size: 12px;&quot;&gt;Heb ik het nodig?&lt;/font&gt;" style="rounded=1;whiteSpace=wrap;html=1;fontSize=21;" parent="1" vertex="1">
          <mxGeometry x="340" y="150" width="120" height="60" as="geometry" />
        </mxCell>
        <mxCell id="cbmwsGL8jix4jwU1fs1p-10" style="edgeStyle=orthogonalEdgeStyle;rounded=0;orthogonalLoop=1;jettySize=auto;html=1;exitX=0.471;exitY=1.008;exitDx=0;exitDy=0;entryX=0.56;entryY=0.045;entryDx=0;entryDy=0;entryPerimeter=0;fontSize=12;exitPerimeter=0;" parent="1" source="cbmwsGL8jix4jwU1fs1p-3" target="cbmwsGL8jix4jwU1fs1p-9" edge="1">
          <mxGeometry relative="1" as="geometry" />
        </mxCell>
        <mxCell id="cbmwsGL8jix4jwU1fs1p-11" value="Ja&amp;nbsp;" style="edgeLabel;html=1;align=center;verticalAlign=middle;resizable=0;points=[];fontSize=12;" parent="cbmwsGL8jix4jwU1fs1p-10" vertex="1" connectable="0">
          <mxGeometry x="-0.3938" y="2" relative="1" as="geometry">
            <mxPoint x="-31" y="-12" as="offset" />
          </mxGeometry>
        </mxCell>
        <mxCell id="cbmwsGL8jix4jwU1fs1p-12" style="edgeStyle=orthogonalEdgeStyle;rounded=0;orthogonalLoop=1;jettySize=auto;html=1;exitX=1;exitY=0.5;exitDx=0;exitDy=0;fontSize=12;" parent="1" source="cbmwsGL8jix4jwU1fs1p-3" target="cbmwsGL8jix4jwU1fs1p-6" edge="1">
          <mxGeometry relative="1" as="geometry" />
        </mxCell>
        <mxCell id="cbmwsGL8jix4jwU1fs1p-13" value="Nee" style="edgeLabel;html=1;align=center;verticalAlign=middle;resizable=0;points=[];fontSize=12;" parent="cbmwsGL8jix4jwU1fs1p-12" vertex="1" connectable="0">
          <mxGeometry x="-0.3217" y="-3" relative="1" as="geometry">
            <mxPoint x="-223" y="-3" as="offset" />
          </mxGeometry>
        </mxCell>
        <mxCell id="cbmwsGL8jix4jwU1fs1p-3" value="&lt;font style=&quot;font-size: 12px;&quot;&gt;Is het binnen 50 km af te halen?&lt;/font&gt;" style="rounded=1;whiteSpace=wrap;html=1;fontSize=21;" parent="1" vertex="1">
          <mxGeometry x="230" y="269.99999999999994" width="120" height="60" as="geometry" />
        </mxCell>
        <mxCell id="cbmwsGL8jix4jwU1fs1p-6" value="&lt;b style=&quot;font-size: 15px;&quot;&gt;Helaas!&lt;br&gt;&amp;nbsp;Sinterklaas raadt deze aankoop af&lt;/b&gt;" style="rounded=1;whiteSpace=wrap;html=1;fontSize=12;" parent="1" vertex="1">
          <mxGeometry x="760" y="560" width="150" height="190" as="geometry" />
        </mxCell>
        <mxCell id="cbmwsGL8jix4jwU1fs1p-15" style="edgeStyle=orthogonalEdgeStyle;rounded=0;orthogonalLoop=1;jettySize=auto;html=1;exitX=0.439;exitY=0.989;exitDx=0;exitDy=0;entryX=0.5;entryY=0;entryDx=0;entryDy=0;fontSize=12;exitPerimeter=0;" parent="1" source="cbmwsGL8jix4jwU1fs1p-9" target="cbmwsGL8jix4jwU1fs1p-14" edge="1">
          <mxGeometry relative="1" as="geometry" />
        </mxCell>
        <mxCell id="cbmwsGL8jix4jwU1fs1p-17" value="Ja" style="edgeLabel;html=1;align=center;verticalAlign=middle;resizable=0;points=[];fontSize=12;" parent="cbmwsGL8jix4jwU1fs1p-15" vertex="1" connectable="0">
          <mxGeometry x="-0.2908" y="1" relative="1" as="geometry">
            <mxPoint x="41" y="-16" as="offset" />
          </mxGeometry>
        </mxCell>
        <mxCell id="cbmwsGL8jix4jwU1fs1p-45" style="edgeStyle=orthogonalEdgeStyle;rounded=0;orthogonalLoop=1;jettySize=auto;html=1;exitX=1;exitY=0.5;exitDx=0;exitDy=0;entryX=0.5;entryY=0;entryDx=0;entryDy=0;fontSize=10;" parent="1" source="cbmwsGL8jix4jwU1fs1p-9" target="cbmwsGL8jix4jwU1fs1p-6" edge="1">
          <mxGeometry relative="1" as="geometry" />
        </mxCell>
        <mxCell id="cbmwsGL8jix4jwU1fs1p-46" value="Nee" style="edgeLabel;html=1;align=center;verticalAlign=middle;resizable=0;points=[];fontSize=10;" parent="cbmwsGL8jix4jwU1fs1p-45" vertex="1" connectable="0">
          <mxGeometry x="-0.8378" y="1" relative="1" as="geometry">
            <mxPoint as="offset" />
          </mxGeometry>
        </mxCell>
        <mxCell id="cbmwsGL8jix4jwU1fs1p-9" value="&lt;font style=&quot;font-size: 12px;&quot;&gt;Past het in de auto?&lt;/font&gt;" style="rounded=1;whiteSpace=wrap;html=1;fontSize=21;" parent="1" vertex="1">
          <mxGeometry x="360" y="389.99999999999994" width="120" height="60" as="geometry" />
        </mxCell>
        <mxCell id="cbmwsGL8jix4jwU1fs1p-20" style="edgeStyle=orthogonalEdgeStyle;rounded=0;orthogonalLoop=1;jettySize=auto;html=1;exitX=0.57;exitY=0.97;exitDx=0;exitDy=0;entryX=0;entryY=0.5;entryDx=0;entryDy=0;fontSize=12;exitPerimeter=0;" parent="1" source="cbmwsGL8jix4jwU1fs1p-14" target="cbmwsGL8jix4jwU1fs1p-19" edge="1">
          <mxGeometry relative="1" as="geometry">
            <Array as="points">
              <mxPoint x="278" y="610" />
              <mxPoint x="370" y="610" />
              <mxPoint x="370" y="600" />
            </Array>
          </mxGeometry>
        </mxCell>
        <mxCell id="cbmwsGL8jix4jwU1fs1p-21" value="Nee" style="edgeLabel;html=1;align=center;verticalAlign=middle;resizable=0;points=[];fontSize=12;" parent="cbmwsGL8jix4jwU1fs1p-20" vertex="1" connectable="0">
          <mxGeometry x="-0.1328" y="-3" relative="1" as="geometry">
            <mxPoint x="-34" y="-25" as="offset" />
          </mxGeometry>
        </mxCell>
        <mxCell id="cbmwsGL8jix4jwU1fs1p-22" style="edgeStyle=orthogonalEdgeStyle;rounded=0;orthogonalLoop=1;jettySize=auto;html=1;exitX=0.981;exitY=0.39;exitDx=0;exitDy=0;fontSize=12;exitPerimeter=0;entryX=0.5;entryY=0;entryDx=0;entryDy=0;" parent="1" source="cbmwsGL8jix4jwU1fs1p-14" target="cbmwsGL8jix4jwU1fs1p-6" edge="1">
          <mxGeometry relative="1" as="geometry" />
        </mxCell>
        <mxCell id="cbmwsGL8jix4jwU1fs1p-24" value="Ja" style="edgeLabel;html=1;align=center;verticalAlign=middle;resizable=0;points=[];fontSize=12;" parent="cbmwsGL8jix4jwU1fs1p-22" vertex="1" connectable="0">
          <mxGeometry x="-0.4978" y="-4" relative="1" as="geometry">
            <mxPoint x="-112" y="-6" as="offset" />
          </mxGeometry>
        </mxCell>
        <mxCell id="cbmwsGL8jix4jwU1fs1p-14" value="&lt;font style=&quot;font-size: 12px;&quot;&gt;Is er een beter IKEA alternatief&lt;/font&gt;" style="rounded=1;whiteSpace=wrap;html=1;fontSize=21;" parent="1" vertex="1">
          <mxGeometry x="210" y="509.99999999999994" width="120" height="60" as="geometry" />
        </mxCell>
        <mxCell id="cbmwsGL8jix4jwU1fs1p-26" style="edgeStyle=orthogonalEdgeStyle;rounded=0;orthogonalLoop=1;jettySize=auto;html=1;exitX=0.25;exitY=1;exitDx=0;exitDy=0;entryX=0.5;entryY=0;entryDx=0;entryDy=0;fontSize=12;" parent="1" source="cbmwsGL8jix4jwU1fs1p-19" target="cbmwsGL8jix4jwU1fs1p-23" edge="1">
          <mxGeometry relative="1" as="geometry">
            <Array as="points">
              <mxPoint x="430" y="660" />
              <mxPoint x="290" y="660" />
            </Array>
          </mxGeometry>
        </mxCell>
        <mxCell id="cbmwsGL8jix4jwU1fs1p-27" value="Ja" style="edgeLabel;html=1;align=center;verticalAlign=middle;resizable=0;points=[];fontSize=12;" parent="cbmwsGL8jix4jwU1fs1p-26" vertex="1" connectable="0">
          <mxGeometry x="-0.2947" y="1" relative="1" as="geometry">
            <mxPoint x="36" y="-16" as="offset" />
          </mxGeometry>
        </mxCell>
        <mxCell id="1iGPtm82k_AsOKl7fkwN-10" style="edgeStyle=orthogonalEdgeStyle;rounded=0;orthogonalLoop=1;jettySize=auto;html=1;exitX=1;exitY=0.5;exitDx=0;exitDy=0;fontSize=12;" edge="1" parent="1" source="cbmwsGL8jix4jwU1fs1p-19" target="cbmwsGL8jix4jwU1fs1p-6">
          <mxGeometry relative="1" as="geometry" />
        </mxCell>
        <mxCell id="1iGPtm82k_AsOKl7fkwN-13" value="Nee" style="edgeLabel;html=1;align=center;verticalAlign=middle;resizable=0;points=[];fontSize=12;" vertex="1" connectable="0" parent="1iGPtm82k_AsOKl7fkwN-10">
          <mxGeometry x="-0.8326" relative="1" as="geometry">
            <mxPoint as="offset" />
          </mxGeometry>
        </mxCell>
        <mxCell id="cbmwsGL8jix4jwU1fs1p-19" value="&lt;font style=&quot;font-size: 12px;&quot;&gt;Zou Laurien het kopen?&lt;/font&gt;" style="rounded=1;whiteSpace=wrap;html=1;fontSize=21;" parent="1" vertex="1">
          <mxGeometry x="400" y="570" width="120" height="60" as="geometry" />
        </mxCell>
        <mxCell id="cbmwsGL8jix4jwU1fs1p-32" style="edgeStyle=orthogonalEdgeStyle;rounded=0;orthogonalLoop=1;jettySize=auto;html=1;exitX=0.5;exitY=1;exitDx=0;exitDy=0;entryX=0.47;entryY=0.018;entryDx=0;entryDy=0;entryPerimeter=0;fontSize=12;" parent="1" source="cbmwsGL8jix4jwU1fs1p-23" target="cbmwsGL8jix4jwU1fs1p-31" edge="1">
          <mxGeometry relative="1" as="geometry" />
        </mxCell>
        <mxCell id="cbmwsGL8jix4jwU1fs1p-33" value="Nee" style="edgeLabel;html=1;align=center;verticalAlign=middle;resizable=0;points=[];fontSize=12;" parent="cbmwsGL8jix4jwU1fs1p-32" vertex="1" connectable="0">
          <mxGeometry x="-0.331" relative="1" as="geometry">
            <mxPoint x="-36" y="-15" as="offset" />
          </mxGeometry>
        </mxCell>
        <mxCell id="1iGPtm82k_AsOKl7fkwN-11" style="edgeStyle=orthogonalEdgeStyle;rounded=0;orthogonalLoop=1;jettySize=auto;html=1;exitX=1;exitY=0.5;exitDx=0;exitDy=0;entryX=0;entryY=0.5;entryDx=0;entryDy=0;fontSize=12;" edge="1" parent="1" source="cbmwsGL8jix4jwU1fs1p-23" target="cbmwsGL8jix4jwU1fs1p-6">
          <mxGeometry relative="1" as="geometry" />
        </mxCell>
        <mxCell id="1iGPtm82k_AsOKl7fkwN-12" value="Ja" style="edgeLabel;html=1;align=center;verticalAlign=middle;resizable=0;points=[];fontSize=12;" vertex="1" connectable="0" parent="1iGPtm82k_AsOKl7fkwN-11">
          <mxGeometry x="-0.8693" relative="1" as="geometry">
            <mxPoint x="-10" as="offset" />
          </mxGeometry>
        </mxCell>
        <mxCell id="cbmwsGL8jix4jwU1fs1p-23" value="&lt;font style=&quot;font-size: 12px;&quot;&gt;Zijn het krukken?&lt;/font&gt;" style="rounded=1;whiteSpace=wrap;html=1;fontSize=21;" parent="1" vertex="1">
          <mxGeometry x="230" y="680" width="120" height="60" as="geometry" />
        </mxCell>
        <mxCell id="cbmwsGL8jix4jwU1fs1p-38" style="edgeStyle=orthogonalEdgeStyle;rounded=0;orthogonalLoop=1;jettySize=auto;html=1;entryX=0.5;entryY=1;entryDx=0;entryDy=0;fontSize=12;" parent="1" source="cbmwsGL8jix4jwU1fs1p-31" target="cbmwsGL8jix4jwU1fs1p-6" edge="1">
          <mxGeometry relative="1" as="geometry" />
        </mxCell>
        <mxCell id="cbmwsGL8jix4jwU1fs1p-39" value="Nee" style="edgeLabel;html=1;align=center;verticalAlign=middle;resizable=0;points=[];fontSize=12;" parent="cbmwsGL8jix4jwU1fs1p-38" vertex="1" connectable="0">
          <mxGeometry x="-0.9214" y="-1" relative="1" as="geometry">
            <mxPoint x="10" y="-2" as="offset" />
          </mxGeometry>
        </mxCell>
        <mxCell id="cbmwsGL8jix4jwU1fs1p-41" style="edgeStyle=orthogonalEdgeStyle;rounded=0;orthogonalLoop=1;jettySize=auto;html=1;fontSize=12;" parent="1" source="cbmwsGL8jix4jwU1fs1p-31" target="cbmwsGL8jix4jwU1fs1p-40" edge="1">
          <mxGeometry relative="1" as="geometry" />
        </mxCell>
        <mxCell id="cbmwsGL8jix4jwU1fs1p-52" value="Ja" style="edgeLabel;html=1;align=center;verticalAlign=middle;resizable=0;points=[];fontSize=12;" parent="cbmwsGL8jix4jwU1fs1p-41" vertex="1" connectable="0">
          <mxGeometry x="-0.216" y="-1" relative="1" as="geometry">
            <mxPoint x="39" y="-14" as="offset" />
          </mxGeometry>
        </mxCell>
        <mxCell id="cbmwsGL8jix4jwU1fs1p-31" value="&lt;font style=&quot;font-size: 12px;&quot;&gt;Kan er met een tikkie betaald worden?&lt;/font&gt;" style="rounded=1;whiteSpace=wrap;html=1;fontSize=21;" parent="1" vertex="1">
          <mxGeometry x="369" y="800" width="120" height="60" as="geometry" />
        </mxCell>
        <mxCell id="1iGPtm82k_AsOKl7fkwN-2" style="edgeStyle=orthogonalEdgeStyle;rounded=0;orthogonalLoop=1;jettySize=auto;html=1;fontSize=12;exitX=0.472;exitY=1.023;exitDx=0;exitDy=0;exitPerimeter=0;" edge="1" parent="1" source="cbmwsGL8jix4jwU1fs1p-40" target="1iGPtm82k_AsOKl7fkwN-1">
          <mxGeometry relative="1" as="geometry">
            <Array as="points">
              <mxPoint x="307" y="1030" />
              <mxPoint x="395" y="1030" />
              <mxPoint x="395" y="980" />
              <mxPoint x="480" y="980" />
            </Array>
          </mxGeometry>
        </mxCell>
        <mxCell id="1iGPtm82k_AsOKl7fkwN-3" value="Nee" style="edgeLabel;html=1;align=center;verticalAlign=middle;resizable=0;points=[];fontSize=12;" vertex="1" connectable="0" parent="1iGPtm82k_AsOKl7fkwN-2">
          <mxGeometry x="-0.5883" y="-1" relative="1" as="geometry">
            <mxPoint x="-21" y="-21" as="offset" />
          </mxGeometry>
        </mxCell>
        <mxCell id="1iGPtm82k_AsOKl7fkwN-8" style="edgeStyle=orthogonalEdgeStyle;rounded=0;orthogonalLoop=1;jettySize=auto;html=1;exitX=1;exitY=0.5;exitDx=0;exitDy=0;entryX=0.5;entryY=1;entryDx=0;entryDy=0;fontSize=12;" edge="1" parent="1" source="cbmwsGL8jix4jwU1fs1p-40" target="cbmwsGL8jix4jwU1fs1p-6">
          <mxGeometry relative="1" as="geometry" />
        </mxCell>
        <mxCell id="1iGPtm82k_AsOKl7fkwN-9" value="Ja" style="edgeLabel;html=1;align=center;verticalAlign=middle;resizable=0;points=[];fontSize=12;" vertex="1" connectable="0" parent="1iGPtm82k_AsOKl7fkwN-8">
          <mxGeometry x="-0.8831" y="4" relative="1" as="geometry">
            <mxPoint x="-17" y="4" as="offset" />
          </mxGeometry>
        </mxCell>
        <mxCell id="cbmwsGL8jix4jwU1fs1p-40" value="&lt;font style=&quot;font-size: 10px;&quot;&gt;Moet er ter plaatse nog worden onderhandeld?&lt;/font&gt;" style="rounded=1;whiteSpace=wrap;html=1;fontSize=21;" parent="1" vertex="1">
          <mxGeometry x="250" y="930" width="120" height="60" as="geometry" />
        </mxCell>
        <mxCell id="cbmwsGL8jix4jwU1fs1p-50" style="edgeStyle=orthogonalEdgeStyle;rounded=0;orthogonalLoop=1;jettySize=auto;html=1;fontSize=15;" parent="1" source="cbmwsGL8jix4jwU1fs1p-48" target="cbmwsGL8jix4jwU1fs1p-6" edge="1">
          <mxGeometry relative="1" as="geometry" />
        </mxCell>
        <mxCell id="cbmwsGL8jix4jwU1fs1p-51" value="Ja" style="edgeLabel;html=1;align=center;verticalAlign=middle;resizable=0;points=[];fontSize=12;" parent="cbmwsGL8jix4jwU1fs1p-50" vertex="1" connectable="0">
          <mxGeometry x="-0.9371" y="1" relative="1" as="geometry">
            <mxPoint x="-8" as="offset" />
          </mxGeometry>
        </mxCell>
        <mxCell id="cbmwsGL8jix4jwU1fs1p-54" style="edgeStyle=orthogonalEdgeStyle;rounded=0;orthogonalLoop=1;jettySize=auto;html=1;exitX=0.25;exitY=1;exitDx=0;exitDy=0;entryX=0.5;entryY=0;entryDx=0;entryDy=0;fontSize=12;" parent="1" source="cbmwsGL8jix4jwU1fs1p-48" target="cbmwsGL8jix4jwU1fs1p-53" edge="1">
          <mxGeometry relative="1" as="geometry" />
        </mxCell>
        <mxCell id="cbmwsGL8jix4jwU1fs1p-55" value="Nee" style="edgeLabel;html=1;align=center;verticalAlign=middle;resizable=0;points=[];fontSize=12;" parent="cbmwsGL8jix4jwU1fs1p-54" vertex="1" connectable="0">
          <mxGeometry x="-0.7306" relative="1" as="geometry">
            <mxPoint y="-10" as="offset" />
          </mxGeometry>
        </mxCell>
        <mxCell id="cbmwsGL8jix4jwU1fs1p-48" value="&lt;font style=&quot;font-size: 12px;&quot;&gt;Is het een spiegel?&lt;/font&gt;" style="rounded=1;whiteSpace=wrap;html=1;fontSize=21;" parent="1" vertex="1">
          <mxGeometry x="270" y="1100" width="120" height="60" as="geometry" />
        </mxCell>
        <mxCell id="cbmwsGL8jix4jwU1fs1p-53" value="&lt;span style=&quot;font-size: 15px;&quot;&gt;&lt;b&gt;HOERA! &lt;br&gt;SINTERKLAAS KEURT &lt;br&gt;DE AANKOOP GOED!&lt;/b&gt;&lt;br&gt;&lt;/span&gt;" style="rounded=1;whiteSpace=wrap;html=1;fontSize=21;" parent="1" vertex="1">
          <mxGeometry x="260" y="1230" width="300" height="140" as="geometry" />
        </mxCell>
        <mxCell id="1iGPtm82k_AsOKl7fkwN-14" style="edgeStyle=orthogonalEdgeStyle;rounded=0;orthogonalLoop=1;jettySize=auto;html=1;exitX=0.5;exitY=1;exitDx=0;exitDy=0;entryX=0.42;entryY=0.001;entryDx=0;entryDy=0;entryPerimeter=0;fontSize=12;" edge="1" parent="1" source="1iGPtm82k_AsOKl7fkwN-1" target="cbmwsGL8jix4jwU1fs1p-48">
          <mxGeometry relative="1" as="geometry">
            <Array as="points">
              <mxPoint x="490" y="1100" />
              <mxPoint x="410" y="1100" />
              <mxPoint x="410" y="1080" />
              <mxPoint x="320" y="1080" />
            </Array>
          </mxGeometry>
        </mxCell>
        <mxCell id="1iGPtm82k_AsOKl7fkwN-15" value="Ja" style="edgeLabel;html=1;align=center;verticalAlign=middle;resizable=0;points=[];fontSize=12;" vertex="1" connectable="0" parent="1iGPtm82k_AsOKl7fkwN-14">
          <mxGeometry x="-0.7592" y="-2" relative="1" as="geometry">
            <mxPoint x="2" y="-15" as="offset" />
          </mxGeometry>
        </mxCell>
        <mxCell id="1iGPtm82k_AsOKl7fkwN-1" value="&lt;font style=&quot;font-size: 10px;&quot;&gt;Weet je de afmetingen van het object?&lt;/font&gt;" style="rounded=1;whiteSpace=wrap;html=1;fontSize=21;" vertex="1" parent="1">
          <mxGeometry x="430" y="1010" width="120" height="60" as="geometry" />
        </mxCell>
      </root>
    </mxGraphModel>
  </diagram>
</mxfile>
